<svg xmlns="http://www.w3.org/2000/svg" viewBox="0 0 410 404"><defs><linearGradient id="a" x1="206" y1="0" x2="206" y2="404" gradientUnits="userSpaceOnUse"><stop offset="0" stop-color="#41d1ff"/><stop offset="1" stop-color="#bd34fe"/></linearGradient></defs><path fill="url(#a)" d="M206 0 0 404h410L206 0z"/><path fill="#fff" d="m226.4 139.4-10.9 28.3h-40.9l-10.9-28.3h-32.2l44.4 109.7h39.3L259 139.4zm-22.9 61.4h-23.1l11.6-30.3z"/><path fill="#fff" d="M293.2 167c-9.8-3.8-12.8-6.4-12.8-10.9v-.2c0-4 3.3-7.5 10.4-7.5 6.6 0 13.3 2.4 19.2 6.9l.4.3 13.2-17.5-.3-.2c-8-6.4-18.2-10.1-32.2-10.1-27.6 0-44.2 15.9-44.2 38.5v.2c0 23.4 17 31.7 34 37.4 9.6 3.5 12.3 6.4 12.3 10.4v.2c0 4.7-3.9 7.9-11.3 7.9-9.1 0-17.5-3.4-25.3-10l-.4-.4-14 17.1.3.3c10 8.7 23.3 13.5 38.9 13.5 28.5 0 45.6-15 45.6-39v-.2c.1-20.1-14.4-29.8-33.2-36.4z"/></svg>
